<svg xmlns="http://www.w3.org/2000/svg" width="128" height="128" viewBox="0 0 128 128" fill="none"><defs><linearGradient id="g" x1="0" y1="0" x2="1" y2="1"><stop stop-color="#70e8ff"/><stop offset=".48" stop-color="#8b6cff"/><stop offset="1" stop-color="#ff72d5"/></linearGradient><filter id="glow"><feGaussianBlur stdDeviation="3" result="b"/><feMerge><feMergeNode in="b"/><feMergeNode in="SourceGraphic"/></feMerge></filter></defs><path d="M20 110C55 75 65 45 112 22M65 70C40 55 27 40 20 20M70 61c18-16 30-22 46-24" stroke="#4a2a55" stroke-width="7" fill="none"/><g fill="#ff8fcf"><circle cx="20" cy="25" r="6"/><circle cx="49" cy="62" r="6"/><circle cx="78" cy="99" r="6"/><circle cx="107" cy="56" r="6"/><circle cx="46" cy="93" r="6"/><circle cx="75" cy="50" r="6"/><circle cx="104" cy="87" r="6"/><circle cx="43" cy="44" r="6"/><circle cx="72" cy="81" r="6"/><circle cx="101" cy="38" r="6"/><circle cx="40" cy="75" r="6"/><circle cx="69" cy="32" r="6"/><circle cx="98" cy="69" r="6"/><circle cx="37" cy="26" r="6"/><circle cx="66" cy="63" r="6"/><circle cx="95" cy="100" r="6"/></g></svg>